<?xml version="1.0" standalone="no"?>
<!DOCTYPE svg PUBLIC "-//W3C//DTD SVG 20010904//EN"
 "http://www.w3.org/TR/2001/REC-SVG-20010904/DTD/svg10.dtd">
<svg version="1.0" xmlns="http://www.w3.org/2000/svg"
 width="260.000000pt" height="260.000000pt" viewBox="0 0 260.000000 260.000000"
 preserveAspectRatio="xMidYMid meet">
<metadata>
Created by potrace 1.11, written by Peter Selinger 2001-2013
</metadata>
<g transform="translate(0.000000,260.000000) scale(0.100000,-0.100000)"
fill="#000000" stroke="none">
<path d="M436 2412 c-2 -4 -17 -7 -33 -6 -15 1 -41 -6 -58 -14 -45 -23 -104
-92 -112 -132 -5 -29 -7 -32 -14 -15 -5 13 -8 -4 -8 -47 -1 -37 4 -70 9 -73 6
-3 10 -15 10 -26 0 -10 5 -19 10 -19 6 0 10 -6 10 -14 0 -17 72 -83 108 -98
39 -17 139 -18 175 -3 30 12 34 11 92 -33 33 -26 65 -51 72 -57 37 -31 43 -35
43 -31 0 5 49 -36 86 -70 13 -12 25 -19 28 -17 3 3 8 -2 12 -11 3 -9 10 -16
15 -16 5 0 17 -8 27 -17 11 -10 32 -27 47 -38 16 -11 34 -26 41 -32 7 -7 17
-13 22 -13 6 0 12 -3 14 -7 3 -9 46 -45 98 -83 19 -14 45 -35 57 -47 13 -12
23 -20 23 -17 0 5 5 1 45 -34 22 -18 31 -42 16 -42 -10 0 -59 -112 -65 -150
-3 -14 -5 -25 -6 -25 -6 0 -10 -52 -12 -120 -1 -79 18 -191 34 -201 4 -3 8
-16 8 -30 0 -13 3 -24 8 -24 4 0 13 -15 21 -32 8 -18 19 -36 25 -41 7 -4 -4
-22 -31 -47 -23 -22 -41 -40 -39 -40 2 0 -28 -31 -68 -69 -68 -65 -73 -68
-116 -66 -47 2 -99 -15 -137 -45 -12 -9 -19 -20 -16 -24 3 -3 1 -6 -5 -6 -14
0 -39 -51 -37 -78 1 -12 -2 -22 -6 -22 -8 0 4 -60 21 -105 10 -26 58 -69 95
-86 101 -47 255 32 259 131 1 17 4 30 8 30 4 0 3 14 -2 32 -9 30 -6 34 99 140
l108 110 57 -37 c31 -19 56 -33 56 -29 0 4 6 1 14 -5 8 -7 22 -14 32 -16 11
-2 42 -10 70 -18 73 -19 235 -13 299 13 17 6 31 11 33 11 6 -2 124 61 144 77
23 19 107 103 123 124 6 7 22 33 35 58 14 25 29 48 33 51 5 3 8 9 7 13 -1 4 1
17 5 29 11 35 13 40 20 72 8 37 12 235 5 235 -3 0 -6 8 -7 18 -3 39 -45 139
-80 192 -43 64 -163 184 -163 162 0 -4 -4 -2 -8 4 -7 12 -132 77 -132 70 0 -3
-16 2 -35 10 -19 8 -35 11 -35 8 0 -4 -6 -2 -13 4 -9 8 -13 45 -12 134 l0 124
44 39 c64 58 86 127 67 210 -11 51 -68 125 -96 125 -6 0 -10 4 -10 8 0 11 -21
14 -105 15 -60 1 -76 -2 -111 -26 -36 -24 -97 -107 -78 -107 3 0 1 -6 -5 -14
-8 -9 -10 -33 -6 -67 4 -30 7 -60 7 -67 1 -8 25 -39 55 -69 29 -31 54 -61 54
-67 1 -6 2 -18 3 -26 1 -8 -2 -20 -7 -27 -4 -6 -3 -14 3 -18 7 -4 7 -12 -1
-26 -7 -15 -7 -24 1 -34 8 -9 8 -15 0 -20 -7 -4 -7 -12 0 -26 8 -13 7 -19 0
-19 -8 0 -8 -6 0 -20 10 -18 7 -20 -30 -26 -22 -4 -43 -10 -46 -15 -2 -4 -11
-6 -19 -2 -8 3 -15 0 -15 -6 0 -7 -6 -11 -12 -9 -13 2 -99 -39 -108 -52 -3 -4
-15 -12 -27 -18 -18 -10 -27 -8 -55 16 -18 15 -34 30 -36 35 -2 4 -10 7 -18 7
-8 0 -14 3 -14 8 0 4 -16 18 -35 31 -19 13 -46 33 -59 45 -14 11 -37 30 -52
41 -14 11 -35 28 -45 38 -11 9 -21 17 -24 17 -3 0 -13 7 -22 15 -19 15 -132
103 -171 133 -12 9 -28 22 -35 27 -6 6 -41 33 -77 60 -93 70 -95 73 -96 124
-1 76 -21 127 -68 176 -24 25 -51 45 -60 45 -9 0 -16 4 -16 8 0 4 -19 9 -42
11 -23 1 -45 4 -49 7 -4 2 -10 1 -13 -4z m1422 -1024 c6 -1 12 -5 12 -10 0 -5
5 -6 10 -3 6 3 10 1 10 -4 0 -6 3 -10 8 -9 35 10 152 -116 152 -163 0 -11 4
-19 9 -19 5 0 8 -35 7 -77 -2 -88 -27 -153 -80 -208 -32 -33 -75 -61 -88 -57
-5 1 -8 -2 -8 -7 0 -27 -169 -34 -226 -9 -46 20 -114 72 -114 87 0 8 -3 11 -6
8 -8 -8 -51 71 -60 109 -23 106 13 231 83 287 13 10 29 25 37 32 7 8 39 23 71
33 52 18 92 20 183 10z"/>
</g>
</svg>
